<svg xmlns="http://www.w3.org/2000/svg" width="960" height="1440" viewBox="0 0 960 1440" role="img" aria-labelledby="title desc">
  <title id="title">證照達人研究室作品總覽</title>
  <desc id="desc">整理作者公開書籍與作品入口的封面縮圖</desc>
  <rect width="960" height="1440" fill="#EAF2FF"/>
  <rect x="84" y="96" width="792" height="1248" rx="40" fill="#FFFFFF" stroke="#B8CBEF" stroke-width="6"/>
  <rect x="84" y="96" width="792" height="118" rx="40" fill="#F7FAFF"/>
  <circle cx="150" cy="156" r="14" fill="#F28C28"/>
  <circle cx="196" cy="156" r="14" fill="#F7C948"/>
  <circle cx="242" cy="156" r="14" fill="#2F9E44"/>
  <rect x="292" y="132" width="488" height="48" rx="24" fill="#E3ECF8"/>
  <text x="320" y="165" fill="#5C7184" font-family="'Noto Sans TC', 'Segoe UI', sans-serif" font-size="24">inauthor: 證照達人研究室</text>
  <text x="124" y="302" fill="#2563EB" font-family="'Segoe UI', sans-serif" font-size="34" font-weight="800" letter-spacing="4">AUTHOR DIRECTORY</text>
  <g fill="#18324A" font-family="'Noto Serif TC', 'Noto Sans TC', serif" font-size="70" font-weight="900">
    <text x="124" y="416">證照達人研究室</text>
    <text x="124" y="510">作品總覽</text>
  </g>
  <text x="124" y="632" fill="#5C7184" font-family="'Noto Sans TC', 'Segoe UI', sans-serif" font-size="32">快速瀏覽作者公開書籍與作品入口</text>
  <rect x="124" y="720" width="712" height="132" rx="24" fill="#F4F8FF" stroke="#D7E1EB" stroke-width="4"/>
  <text x="164" y="778" fill="#2563EB" font-family="'Noto Sans TC', 'Segoe UI', sans-serif" font-size="32" font-weight="800">英文學習作品</text>
  <text x="164" y="830" fill="#5C7184" font-family="'Noto Sans TC', 'Segoe UI', sans-serif" font-size="26">Google Play Books 與公開書目入口</text>
  <rect x="124" y="892" width="712" height="132" rx="24" fill="#F4F8FF" stroke="#D7E1EB" stroke-width="4"/>
  <text x="164" y="950" fill="#2563EB" font-family="'Noto Sans TC', 'Segoe UI', sans-serif" font-size="32" font-weight="800">iPAS AI 證照學習</text>
  <text x="164" y="1002" fill="#5C7184" font-family="'Noto Sans TC', 'Segoe UI', sans-serif" font-size="26">考試準備、觀念整理與備考書籍</text>
  <rect x="124" y="1064" width="712" height="132" rx="24" fill="#F4F8FF" stroke="#D7E1EB" stroke-width="4"/>
  <text x="164" y="1122" fill="#2563EB" font-family="'Noto Sans TC', 'Segoe UI', sans-serif" font-size="32" font-weight="800">作者作品搜尋</text>
  <text x="164" y="1174" fill="#5C7184" font-family="'Noto Sans TC', 'Segoe UI', sans-serif" font-size="26">用搜尋結果查看已公開內容</text>
  <circle cx="744" cy="1244" r="54" fill="#F28C28"/>
  <path d="M716 1244H772M744 1216V1272" stroke="#FFFFFF" stroke-width="14" stroke-linecap="round"/>
</svg>
