<svg width="480" height="640" viewBox="0 0 480 640" fill="none" xmlns="http://www.w3.org/2000/svg"><rect width="480" height="640" rx="32" fill="#E8F4FF"/><rect x="42" y="42" width="396" height="556" rx="24" fill="#FFFFFF"/><rect x="72" y="74" width="148" height="14" rx="7" fill="#2563EB"/><rect x="72" y="116" width="280" height="24" rx="12" fill="#18324A"/><rect x="72" y="154" width="312" height="24" rx="12" fill="#18324A"/><rect x="72" y="230" width="336" height="182" rx="24" fill="#F2F8FF"/><rect x="92" y="254" width="296" height="24" rx="12" fill="#D7E8FF"/><rect x="92" y="294" width="120" height="82" rx="18" fill="#2563EB"/><rect x="228" y="294" width="160" height="16" rx="8" fill="#9EBBE8"/><rect x="228" y="322" width="140" height="16" rx="8" fill="#9EBBE8"/><rect x="228" y="350" width="126" height="16" rx="8" fill="#9EBBE8"/><rect x="72" y="450" width="142" height="34" rx="17" fill="#2F9E44"/></svg>
