<svg width="480" height="640" viewBox="0 0 480 640" fill="none" xmlns="http://www.w3.org/2000/svg"><rect width="480" height="640" rx="32" fill="#EDF9F0"/><rect x="40" y="40" width="400" height="560" rx="24" fill="#FFFFFF"/><rect x="72" y="76" width="176" height="14" rx="7" fill="#2F9E44"/><rect x="72" y="120" width="310" height="24" rx="12" fill="#18324A"/><rect x="72" y="158" width="286" height="24" rx="12" fill="#18324A"/><rect x="72" y="230" width="336" height="152" rx="24" fill="#F3FBF5"/><circle cx="134" cy="306" r="42" fill="#2F9E44" opacity="0.2"/><path d="M102 322H166V338H102V322Z" fill="#2F9E44"/><path d="M114 286H154V302H114V286Z" fill="#2F9E44"/><rect x="206" y="270" width="166" height="16" rx="8" fill="#AED7B7"/><rect x="206" y="302" width="142" height="16" rx="8" fill="#AED7B7"/><rect x="206" y="334" width="126" height="16" rx="8" fill="#AED7B7"/><rect x="72" y="430" width="152" height="34" rx="17" fill="#F28C28"/></svg>
