<svg width="480" height="640" viewBox="0 0 480 640" fill="none" xmlns="http://www.w3.org/2000/svg"><rect width="480" height="640" rx="32" fill="#DCEAFF"/><rect x="36" y="36" width="408" height="568" rx="24" fill="#FFFFFF"/><rect x="68" y="76" width="142" height="14" rx="7" fill="#2563EB"/><rect x="68" y="122" width="322" height="26" rx="13" fill="#18324A"/><rect x="68" y="164" width="276" height="26" rx="13" fill="#18324A"/><rect x="68" y="206" width="204" height="26" rx="13" fill="#18324A"/><rect x="68" y="266" width="110" height="10" rx="5" fill="#AFC4DA"/><rect x="68" y="292" width="250" height="10" rx="5" fill="#AFC4DA"/><rect x="68" y="318" width="228" height="10" rx="5" fill="#AFC4DA"/><rect x="68" y="420" width="132" height="34" rx="17" fill="#2563EB"/><rect x="216" y="420" width="132" height="34" rx="17" fill="#EAF2FF"/><circle cx="360" cy="468" r="44" fill="#F28C28" opacity="0.2"/><path d="M318 458C318 434.804 336.804 416 360 416C383.196 416 402 434.804 402 458V500H318V458Z" fill="#F28C28"/></svg>
